<svg id="Artboard_30" height="512" viewBox="0 0 64 64" width="512" xmlns="http://www.w3.org/2000/svg" data-name="Artboard 30"><path d="m56 35v24a2 2 0 0 1 -2 2h-44a2 2 0 0 1 -2-2v-24z" fill="#754c24"/><path d="m32 61h22a2 2 0 0 0 2-2v-24h-24z" fill="#80542a"/><path d="m29 35h-21a6 6 0 0 1 -6-6v-13a3 3 0 0 1 3-3h54a3 3 0 0 1 3 3v13a6 6 0 0 1 -6 6z" fill="#8c6239"/><path d="m14 31h47.651a5.971 5.971 0 0 0 .349-2v-13a3 3 0 0 0 -3-3h-51v12a6 6 0 0 0 6 6z" fill="#a67c52"/><rect fill="#8c6239" height="6" rx="1" width="22" x="21" y="3"/><g fill="#2e2f30"><path d="m50 13h-2v-5a1 1 0 0 0 -1-1h-4v-2h4a3 3 0 0 1 3 3z"/><path d="m16 13h-2v-5a3 3 0 0 1 3-3h4v2h-4a1 1 0 0 0 -1 1z"/><path d="m26 27h12v4h-12z"/></g><path d="m29 31h6v8h-6z" fill="#ccc"/><path d="m29 43h6v4h-6z" fill="#ccc"/><path d="m42 3h-20a1 1 0 0 0 -1 1v2h22v-2a1 1 0 0 0 -1-1z" fill="#a67c52"/><path d="m32 31h3v8h-3z" fill="#f4f4f5"/><path d="m32 43h3v4h-3z" fill="#f4f4f5"/><path d="m26 39h12v4h-12z" fill="#2e2f30"/><path d="m59 12h-9v-4a3 3 0 0 0 -3-3h-3v-1a2 2 0 0 0 -2-2h-20a2 2 0 0 0 -2 2v1h-3a3 3 0 0 0 -3 3v4h-9a4 4 0 0 0 -4 4v13a7 7 0 0 0 6 6.92v23.08a3 3 0 0 0 3 3h44a3 3 0 0 0 3-3v-23.08a7 7 0 0 0 6-6.92v-13a4 4 0 0 0 -4-4zm-37-8h20v4h-20zm-6 4a1 1 0 0 1 1-1h3v1a2 2 0 0 0 2 2h20a2 2 0 0 0 2-2v-1h3a1 1 0 0 1 1 1v4h-32zm38 52h-44a1 1 0 0 1 -1-1v-23h19v2h-2a1 1 0 0 0 -1 1v4a1 1 0 0 0 1 1h2v3a1 1 0 0 0 1 1h6a1 1 0 0 0 1-1v-3h2a1 1 0 0 0 1-1v-4a1 1 0 0 0 -1-1h-2v-2h19v23a1 1 0 0 1 -1 1zm-24-16h4v2h-4zm-3-2v-2h10v2zm0-12v-2h10v2zm7 2v6h-4v-6zm27-3a5.006 5.006 0 0 1 -5 5h-20v-2h2a1 1 0 0 0 1-1v-4a1 1 0 0 0 -1-1h-12a1 1 0 0 0 -1 1v4a1 1 0 0 0 1 1h2v2h-20a5.006 5.006 0 0 1 -5-5v-13a2 2 0 0 1 2-2h54a2 2 0 0 1 2 2z"/></svg>