<svg width="58" height="58" viewBox="0 0 58 58" fill="none" xmlns="http://www.w3.org/2000/svg">
<path d="M29.065 57.4525C25.1854 57.4525 21.5186 56.7073 18.0648 55.217C14.611 53.7267 11.5949 51.6922 9.01632 49.1137C6.43779 46.5351 4.40335 43.519 2.91301 40.0652C1.42266 36.6114 0.67749 32.9446 0.67749 29.065C0.67749 25.1381 1.42266 21.4595 2.91301 18.0294C4.40335 14.5992 6.43779 11.5949 9.01632 9.01633C11.5949 6.4378 14.611 4.40337 18.0648 2.91302C21.5186 1.42268 25.1854 0.677505 29.065 0.677505C32.9919 0.677505 36.6705 1.42268 40.1006 2.91302C43.5308 4.40337 46.5351 6.4378 49.1137 9.01633C51.6922 11.5949 53.7266 14.5992 55.217 18.0294C56.7073 21.4595 57.4525 25.1381 57.4525 29.065C57.4525 32.9446 56.7073 36.6114 55.217 40.0652C53.7266 43.519 51.6922 46.5351 49.1137 49.1137C46.5351 51.6922 43.5308 53.7267 40.1006 55.217C36.6705 56.7073 32.9919 57.4525 29.065 57.4525ZM29.065 51.6331C30.2951 49.9298 31.3596 48.1556 32.2586 46.3104C33.1575 44.4652 33.8909 42.5018 34.4586 40.42H23.6714C24.2391 42.5018 24.9725 44.4652 25.8714 46.3104C26.7703 48.1556 27.8349 49.9298 29.065 51.6331ZM21.6842 50.4976C20.8326 48.9363 20.0874 47.3158 19.4487 45.6362C18.81 43.9566 18.2777 42.2179 17.8519 40.42H9.47762C10.8497 42.7856 12.5648 44.8437 14.6229 46.5943C16.6809 48.3449 19.0347 49.6459 21.6842 50.4976ZM36.4457 50.4976C39.0952 49.6459 41.449 48.3449 43.5071 46.5943C45.5652 44.8437 47.2803 42.7856 48.6524 40.42H40.2781C39.8522 42.2179 39.32 43.9566 38.6813 45.6362C38.0425 47.3158 37.2974 48.9363 36.4457 50.4976ZM7.06468 34.7425H16.7164C16.5745 33.7963 16.468 32.8618 16.3971 31.9392C16.3261 31.0166 16.2906 30.0586 16.2906 29.065C16.2906 28.0714 16.3261 27.1134 16.3971 26.1908C16.468 25.2682 16.5745 24.3338 16.7164 23.3875H7.06468C6.82812 24.3338 6.65069 25.2682 6.53241 26.1908C6.41413 27.1134 6.35499 28.0714 6.35499 29.065C6.35499 30.0586 6.41413 31.0166 6.53241 31.9392C6.65069 32.8618 6.82812 33.7963 7.06468 34.7425ZM22.3939 34.7425H35.7361C35.878 33.7963 35.9844 32.8618 36.0554 31.9392C36.1264 31.0166 36.1619 30.0586 36.1619 29.065C36.1619 28.0714 36.1264 27.1134 36.0554 26.1908C35.9844 25.2682 35.878 24.3338 35.7361 23.3875H22.3939C22.252 24.3338 22.1455 25.2682 22.0746 26.1908C22.0036 27.1134 21.9681 28.0714 21.9681 29.065C21.9681 30.0586 22.0036 31.0166 22.0746 31.9392C22.1455 32.8618 22.252 33.7963 22.3939 34.7425ZM41.4136 34.7425H51.0653C51.3019 33.7963 51.4793 32.8618 51.5976 31.9392C51.7159 31.0166 51.775 30.0586 51.775 29.065C51.775 28.0714 51.7159 27.1134 51.5976 26.1908C51.4793 25.2682 51.3019 24.3338 51.0653 23.3875H41.4136C41.5555 24.3338 41.6619 25.2682 41.7329 26.1908C41.8039 27.1134 41.8394 28.0714 41.8394 29.065C41.8394 30.0586 41.8039 31.0166 41.7329 31.9392C41.6619 32.8618 41.5555 33.7963 41.4136 34.7425ZM40.2781 17.71H48.6524C47.2803 15.3444 45.5652 13.2863 43.5071 11.5357C41.449 9.78516 39.0952 8.48407 36.4457 7.63244C37.2974 9.19376 38.0425 10.8142 38.6813 12.4938C39.32 14.1734 39.8522 15.9121 40.2781 17.71ZM23.6714 17.71H34.4586C33.8909 15.6283 33.1575 13.6648 32.2586 11.8196C31.3596 9.97441 30.2951 8.20019 29.065 6.49694C27.8349 8.20019 26.7703 9.97441 25.8714 11.8196C24.9725 13.6648 24.2391 15.6283 23.6714 17.71ZM9.47762 17.71H17.8519C18.2777 15.9121 18.81 14.1734 19.4487 12.4938C20.0874 10.8142 20.8326 9.19376 21.6842 7.63244C19.0347 8.48407 16.6809 9.78516 14.6229 11.5357C12.5648 13.2863 10.8497 15.3444 9.47762 17.71Z" fill="#90CAF9"/>
</svg>
